<?xml version="1.0" encoding="UTF-8"?><svg id="Layer_1" xmlns="http://www.w3.org/2000/svg" viewBox="0 0 470.6341463415 470.6341463415"><defs><style>.cls-1{fill:#1b1464;}.cls-2{fill:#3a99dd;}</style></defs><g id="Style_1"><path class="cls-2" d="m272.5600742882,68.669003349h61.8911665102c37.2272840299,0,67.513902194,30.2857799194,67.513902194,67.513902194v61.8909569491h68.669003349v-61.8909569491C470.6341463415,61.0912715341,409.5428748074,0,334.4512407985,0h-61.8911665102v68.669003349Z"/><path class="cls-1" d="m68.669003349,198.0738624921v-61.8909569491c0-37.2281222746,30.2866181641-67.513902194,67.513902194-67.513902194h61.8913760714V0h-61.8913760714C61.0912715341,0,0,61.0912715341,0,136.182905543v61.8909569491h68.669003349Z"/><path class="cls-2" d="m198.0742816144,401.9651429925h-61.8913760714c-37.2272840299,0-67.513902194-30.2857799194-67.513902194-67.513902194v-61.8915856326H0v61.8915856326c0,75.0916340089,61.0912715341,136.182905543,136.182905543,136.182905543h61.8913760714v-68.669003349Z"/><path class="cls-1" d="m401.9651429925,272.5596551659v61.8915856326c0,37.2281222746-30.2866181641,67.513902194-67.513902194,67.513902194h-61.8911665102v68.669003349h61.8911665102c75.0916340089,0,136.182905543-61.0912715341,136.182905543-136.182905543v-61.8915856326h-68.669003349Z"/><path d="m173.5035966082,291.4869474085l-27.3828125,28.5478515625v51.5615234375h-46.900390625v-203.9140625h46.900390625v95.2568359375l90.3037109375-95.2568359375h52.435546875l-84.4780273438,90.8876953125,89.4301757812,113.0263671875h-55.056640625l-65.251953125-80.109375Z"/></g></svg>